# xmcd
#
# Track frame offsets: 
#        150
#        12555
#        20669
#        34565
#        47445
#        62503
#        72939
#        83109
#        92709
#        110689
#        120784
#        134590
#
# Disc length: 2029 seconds
#
# Revision: 1
# Processed by: cddbd v1.5.2PL0 Copyright (c) Steve Scherf et al.
# Submitted via: ExactAudioCopyFreeDBPlugin 1.0
#
DISCID=9707eb0c
DTITLE=Barrence Whitfield - Savage Kings
DYEAR=2011
DGENRE=Rhythm and Blues
TTITLE0=(Your Love is Like a) Ramblin' Rose
TTITLE1=Just Moved In
TTITLE2=It's Mighty Crazy
TTITLE3=You Told a Lie
TTITLE4=Willie Meehan
TTITLE5=Shot Down
TTITLE6=Who's Gonna Rock My Baby?
TTITLE7=64W MM 232
TTITLE8=Hold Me Close
TTITLE9=Barefoot Susie
TTITLE10=Stop Trying to Break Me Down
TTITLE11=Bad Girl
EXTD=
EXTT0=
EXTT1=
EXTT2=
EXTT3=
EXTT4=
EXTT5=
EXTT6=
EXTT7=
EXTT8=
EXTT9=
EXTT10=
EXTT11=
PLAYORDER=
